#!OML:ASF F:\VICON\USERDATA\INSTALL\rory3\rory3.ASF
:FULLY-SPECIFIED
:DEGREES
19
root -0.6419752836725413 17.683203670834967 -13.638689815899408 -1.4434251713410928 6.873759667474905 -3.886074780741488
lfemur -23.75149373524815 -3.501824276782206 -21.614797986682635
ltibia 40.95960054694761
lfoot -11.770493448433276 -10.71139304339339
ltoes -1.5494360793424402
rfemur -7.638074019281032 -2.109067861983896 27.04960007971789
rtibia 96.09898219985286
rfoot 21.07318365347097 -13.163587860044919
rtoes 16.75528769957672
lowerback 16.497285641361255 1.0708664147480071 2.768765984589477
upperback -0.0810312943617934 2.0672155086433897 1.1520133925428229
thorax -9.314909306352055 0.891517930953763 -0.8248256193138291
lowerneck -18.957094112938254 -5.346233447203205 -1.6914257790619123
upperneck 15.242904182475762 -7.620282112706145 4.051618636700847
head 8.059292829929596 -3.3001633774943206 0.6760134575698125
lclavicle -9.152774339847445e-16 -7.746725139183434e-16
lhumerus -61.08468459399016 -12.545188881431436 100.14098192457654
lradius 104.07298986979939
lwrist 33.45058829796125
lhand -25.856206542779212 0.7974985326453723
lfingers 7.125020000000057
lthumb 0.6846004567303206 30.776111507333685
rclavicle -9.152774339847445e-16 -7.746725139183434e-16
rhumerus -48.454291764413675 14.403487431183397 -101.75298540677781
rradius 104.67298970995884
rwrist -7.877907043840358
rhand -19.72159002324048 40.73908757964961
rfingers 7.125020000000057
rthumb 6.6085599770313035 10.86218764952286
20
root -0.646633214923163 17.474908519565 -12.685890228701599 -1.1420260252044043 6.63226031454453 -2.519608718467231
lfemur -22.372294499709515 -3.797763519914433 -23.298895461057292
ltibia 45.080998918858235
lfoot -17.15248957867879 -7.689816900995311
ltoes 2.0965100648138675
rfemur -13.30770089562047 -3.7861038889492034 23.902404932258893
rtibia 102.40697984232864
rfoot 20.997883706007745 -9.952804036240925
rtoes 15.041689265824779
lowerback 16.84358442334759 1.0303266853965054 0.9001367565176699
upperback 0.15046710622511406 1.6215373637770742 0.8064185324506169
thorax -9.309279333844964 0.7562972140732036 -0.036899578045832326
lowerneck -19.70269059368662 -5.254084256292822 -1.3674709888108474
upperneck 15.087904476578366 -7.553942498628933 3.9693790697038733
head 8.117182437396256 -3.2486040926277644 0.5904328734601846
lclavicle -9.152775159745956e-16 -7.746724997894612e-16
lhumerus -56.908787526497164 -14.232586984702488 100.1769818753987
lradius 104.52998976175591
lwrist 34.90128727926725
lhand -24.961009341551467 0.056301515164708604
lfingers 7.125020000000057
lthumb 1.5492606572760297 30.030412193893127
rclavicle -9.152775159745956e-16 -7.746724997894612e-16
rhumerus -49.23729116922881 13.324788076073016 -101.86498530302357
rradius 101.6549904347325
rwrist -6.520558172247547
rhand -22.246575434986305 37.44369128166227
rfingers 7.125020000000057
rthumb 4.170694571628387 7.504821422413291
21
root -0.38336741355054427 17.139506121801485 -3.79854667599429 1.5181350223480496 5.192909991521512 2.089159955039252
lfemur -20.770067269373882 -1.5764720778208616 -27.118883008573498
ltibia 49.139060557959354
lfoot -22.075463525206047 -3.2730277125506095
ltoes 0.6418388381989635
rfemur -19.683752871112233 -4.32653717146035 19.251306082047236
rtibia 106.72543636423678
rfoot 13.999829982324007 -8.278692255382161
rtoes 17.443203402057904
lowerback 17.417860408311604 1.3467441759003065 -2.425166344728285
upperback -0.18036333722025827 1.3321714506080347 -0.6293867639326158
thorax -9.941875241245155 0.7281098943745845 0.4035913842798755
lowerneck -19.979249156369644 -5.497069441149433 -1.9168405846831384
upperneck 12.820099455484009 -7.736016238176954 4.433031117418672
head 7.531714115649268 -3.363445367667893 0.8811726797570691
lclavicle -1.6264070642978768e-15 -1.3253021788448415e-15
lhumerus -48.415807133310565 -14.738788255176129 98.03494415342108
lradius 106.31245997591523
lwrist 33.398708872941015
lhand -25.691917902800064 5.5504337229792755
lfingers 7.125020000000055
lthumb 0.8429034977866088 35.442418131683716
rclavicle -1.6264070642978768e-15 -1.3253021788448415e-15
rhumerus -45.27839035185985 8.690564112911892 -98.88901062831783
rradius 98.95040136681047
rwrist -12.804968865419355
rhand -20.858949127784587 35.53362594012546
rfingers 7.125020000000055
rthumb 5.509670584364279 7.897882110121072
22
root -0.37809562249208595 16.991427852692308 -6.043354651698554 2.2310270073228673 4.711012287947035 2.7471177688717687
lfemur -18.43848161821388 -1.3110918294612182 -28.009950409935694
ltibia 50.82016188958965
lfoot -25.393987115643544 -0.22628143929289557
ltoes -1.7794024712548024
rfemur -26.76723566543604 -5.073225548432992 18.082448600925606
rtibia 113.22085133816529
rfoot 11.76621424553528 -7.347201659059963
rtoes 16.155405941064796
lowerback 17.92858673963886 1.2392594855012362 -3.4136291490673516
upperback -0.13513000782038076 0.9949532048179459 -0.830926377302456
thorax -10.195464729507599 0.608340412638533 0.8399194704071399
lowerneck -20.256332382369294 -5.421481378127825 -1.955866764240641
upperneck 12.05674682325478 -7.665823413052339 4.795175975875837
head 7.335232618335954 -3.2937441268441274 1.0165439803735974
lclavicle -1.7046163831514425e-15 -1.3858598869655302e-15
lhumerus -44.382775778614025 -15.845309310829132 97.96521992803049
lradius 107.38304581689223
lwrist 33.89716294810537
lhand -25.413578088258006 4.787644831647411
lfingers 7.125020000000055
lthumb 1.1117046315849797 34.68217757359645
rclavicle -1.7046163831514425e-15 -1.3858598869655302e-15
rhumerus -48.19973113588313 8.2167594975103 -99.57284952981408
rradius 100.26305084648234
rwrist -13.956330116298325
rhand -20.748512412639943 35.315127900533476
rfingers 7.125020000000055
rthumb 5.615884481468763 8.461537691598958
